<svg width="198" height="55" viewBox="0 0 198 55" fill="none" xmlns="http://www.w3.org/2000/svg">
<path fill-rule="evenodd" clip-rule="evenodd" d="M24.7784 40.778C25.4514 40.1071 25.4514 38.9924 24.7784 38.2912C24.1055 37.59 22.9872 37.6203 22.2838 38.2912L10.4507 50.0875C9.77779 50.7583 9.77779 51.8731 10.4507 52.5743C11.1237 53.2452 12.2419 53.2452 12.9453 52.5743L24.7784 40.778ZM51.8371 21.7436C51.8371 13.5185 45.1535 6.82267 36.8696 6.82267C28.5857 6.82267 21.9317 13.5093 21.9317 21.7436C21.9317 29.9779 28.6152 36.6645 36.8991 36.6645C45.183 36.6645 51.8371 30.0018 51.8371 21.7436ZM25.4514 21.9348C25.4502 20.4355 25.7455 18.9507 26.3205 17.5654C26.8954 16.18 27.7388 14.9213 28.8022 13.8611C29.8656 12.801 31.1283 11.9603 32.518 11.3871C33.9077 10.8139 35.3971 10.5195 36.901 10.5207C38.4049 10.5195 39.8943 10.8139 41.284 11.3871C42.6737 11.9603 43.9363 12.801 44.9998 13.8611C46.0632 14.9213 46.9065 16.18 47.4815 17.5654C48.0565 18.9507 48.3518 20.4355 48.3506 21.9348C48.3506 28.2161 43.2342 33.3488 36.901 33.3488C30.5678 33.3488 25.4514 28.2152 25.4514 21.9348ZM3.03064 54.4968L18.223 39.3517C18.9264 38.6505 18.9264 37.5661 18.223 36.8649C17.5196 36.1637 16.4318 36.1637 15.7284 36.8649L0.536064 52.01C-0.16732 52.7112 -0.16732 53.7956 0.536064 54.4968C1.23945 55.1677 2.35952 55.1677 3.03064 54.4968ZM19.1818 29.851C19.3169 29.7127 19.4254 29.5507 19.5016 29.3732L19.981 28.8953C19.0263 26.6349 18.5369 24.2063 18.542 21.7537C18.542 11.4884 26.8895 3.16596 37.1545 3.16596C47.4195 3.16596 55.8315 11.5289 55.8315 21.785C55.8315 32.041 47.4859 40.3626 37.22 40.3626C34.76 40.3644 32.3245 39.8767 30.0561 38.928L18.9264 50.0241C18.2534 50.6949 18.2534 51.8097 18.9264 52.5109C19.5994 53.2121 20.7176 53.1818 21.421 52.5109L31.3772 42.5857C33.2642 43.1371 35.2472 43.3824 37.2624 43.3824C49.2771 43.3925 59 33.6998 59 21.7124C59 9.72488 49.3093 0 37.2836 0C25.2578 0 15.5367 9.69272 15.5367 21.6793C15.5349 23.7059 15.8148 25.7229 16.3682 27.673L0.504719 43.4872C-0.168243 44.1581 -0.168243 45.2728 0.504719 45.974C1.17768 46.6752 2.29591 46.6449 2.99929 45.974L19.1818 29.8428V29.851Z" fill="white"/>
<path d="M90.4375 39H86.3438V25.6562L79.1406 38.3281C78.9635 38.651 78.7135 38.8958 78.3906 39.0625C78.0781 39.2292 77.7396 39.3125 77.375 39.3125C77.0208 39.3125 76.6875 39.2292 76.375 39.0625C76.0729 38.8958 75.8333 38.651 75.6562 38.3281L68.4219 25.6562V39H64.3594V18.3281C64.3594 17.8594 64.4948 17.4427 64.7656 17.0781C65.0469 16.7135 65.4115 16.4688 65.8594 16.3438C66.0781 16.2917 66.2969 16.276 66.5156 16.2969C66.7344 16.3073 66.9427 16.3542 67.1406 16.4375C67.349 16.5104 67.5365 16.6198 67.7031 16.7656C67.8698 16.901 68.0104 17.0677 68.125 17.2656L77.375 33.3438L86.625 17.2656C86.8646 16.8698 87.1927 16.5885 87.6094 16.4219C88.0365 16.2552 88.4792 16.2292 88.9375 16.3438C89.375 16.4688 89.7344 16.7135 90.0156 17.0781C90.2969 17.4427 90.4375 17.8594 90.4375 18.3281V39ZM112.062 33.4062C112.062 33.9688 111.964 34.5781 111.766 35.2344C111.568 35.8802 111.245 36.4844 110.797 37.0469C110.359 37.599 109.781 38.0625 109.062 38.4375C108.354 38.8125 107.49 39 106.469 39H99.1406C98.5781 39 97.9688 38.901 97.3125 38.7031C96.6667 38.5052 96.0625 38.1875 95.5 37.75C94.9479 37.3021 94.4844 36.724 94.1094 36.0156C93.7344 35.2969 93.5469 34.4271 93.5469 33.4062C93.5469 32.8438 93.6458 32.2344 93.8438 31.5781C94.0417 30.9219 94.3594 30.3177 94.7969 29.7656C95.2448 29.2031 95.8229 28.7344 96.5312 28.3594C97.25 27.9844 98.1198 27.7969 99.1406 27.7969H106.469V31.6719H99.1406C98.5885 31.6719 98.1615 31.8438 97.8594 32.1875C97.5573 32.5208 97.4062 32.9375 97.4062 33.4375C97.4062 33.9688 97.5781 34.3854 97.9219 34.6875C98.276 34.9792 98.6927 35.125 99.1719 35.125H106.469C107.021 35.125 107.448 34.9583 107.75 34.625C108.052 34.2917 108.203 33.875 108.203 33.375V27.7031C108.203 27.1719 108.036 26.75 107.703 26.4375C107.38 26.125 106.969 25.9688 106.469 25.9688H97.5469V22.1094H106.469C107.031 22.1094 107.635 22.2083 108.281 22.4062C108.938 22.6042 109.542 22.9271 110.094 23.375C110.656 23.8125 111.125 24.3906 111.5 25.1094C111.875 25.8177 112.062 26.6823 112.062 27.7031V33.4062ZM130.484 26.1719H121.297V22.1094H130.484V26.1719ZM130.484 18.8438H121.328C120.776 18.8438 120.359 18.9844 120.078 19.2656C119.797 19.5365 119.656 19.9375 119.656 20.4688V39H115.594V20.4688C115.594 19.7708 115.682 19.1458 115.859 18.5938C116.036 18.0417 116.271 17.5573 116.562 17.1406C116.865 16.7135 117.208 16.3542 117.594 16.0625C117.979 15.7604 118.38 15.5156 118.797 15.3281C119.224 15.1406 119.651 15.0052 120.078 14.9219C120.505 14.8281 120.911 14.7812 121.297 14.7812H130.484V18.8438ZM151.469 44.2812H147.406V27.7969C147.406 27.2656 147.271 26.8646 147 26.5938C146.729 26.3125 146.318 26.1719 145.766 26.1719H138.438C137.938 26.1719 137.542 26.3281 137.25 26.6406C136.958 26.9427 136.812 27.3281 136.812 27.7969V33.2969C136.812 33.8281 136.953 34.2344 137.234 34.5156C137.516 34.7969 137.927 34.9375 138.469 34.9375H145.766V39H138.438C137.875 39 137.26 38.901 136.594 38.7031C135.927 38.5052 135.307 38.1823 134.734 37.7344C134.172 37.276 133.698 36.6875 133.312 35.9688C132.938 35.2396 132.75 34.349 132.75 33.2969V27.7969C132.75 27.4115 132.792 27.0052 132.875 26.5781C132.969 26.151 133.109 25.7292 133.297 25.3125C133.484 24.8854 133.724 24.4792 134.016 24.0938C134.318 23.7083 134.677 23.3698 135.094 23.0781C135.521 22.7865 136.01 22.5521 136.562 22.375C137.115 22.1979 137.74 22.1094 138.438 22.1094H145.766C146.151 22.1094 146.557 22.1562 146.984 22.25C147.422 22.3333 147.849 22.4688 148.266 22.6562C148.693 22.8438 149.099 23.0885 149.484 23.3906C149.87 23.6823 150.208 24.0417 150.5 24.4688C150.792 24.8854 151.026 25.3698 151.203 25.9219C151.38 26.474 151.469 27.099 151.469 27.7969V44.2812ZM173.656 36.9531C173.656 37.2448 173.604 37.5156 173.5 37.7656C173.396 38.0156 173.25 38.2344 173.062 38.4219C172.885 38.599 172.672 38.7396 172.422 38.8438C172.182 38.9479 171.922 39 171.641 39H162.453C161.953 39 161.417 38.9427 160.844 38.8281C160.281 38.7135 159.724 38.5312 159.172 38.2812C158.62 38.0208 158.083 37.6979 157.562 37.3125C157.052 36.9167 156.604 36.4427 156.219 35.8906C155.833 35.3281 155.521 34.6823 155.281 33.9531C155.052 33.224 154.938 32.401 154.938 31.4844V22.1094H159V31.4844C159 32.0156 159.089 32.4948 159.266 32.9219C159.453 33.3385 159.703 33.6979 160.016 34C160.328 34.3021 160.693 34.5365 161.109 34.7031C161.536 34.8594 161.995 34.9375 162.484 34.9375H169.594V22.1094H173.656V36.9531ZM196 33.2969C196 33.9948 195.911 34.625 195.734 35.1875C195.557 35.7396 195.323 36.2292 195.031 36.6562C194.74 37.0729 194.401 37.4323 194.016 37.7344C193.63 38.026 193.224 38.2656 192.797 38.4531C192.38 38.6406 191.953 38.7812 191.516 38.875C191.089 38.9583 190.682 39 190.297 39H182.969C182.271 39 181.646 38.9115 181.094 38.7344C180.542 38.5573 180.052 38.3229 179.625 38.0312C179.208 37.7292 178.849 37.3854 178.547 37C178.255 36.6146 178.016 36.2135 177.828 35.7969C177.641 35.3698 177.5 34.9427 177.406 34.5156C177.323 34.0781 177.281 33.6719 177.281 33.2969V27.7969C177.281 26.7552 177.469 25.875 177.844 25.1562C178.229 24.4271 178.703 23.8385 179.266 23.3906C179.839 22.9323 180.458 22.6042 181.125 22.4062C181.792 22.2083 182.406 22.1094 182.969 22.1094H190.297V26.1719H183C182.458 26.1719 182.047 26.3125 181.766 26.5938C181.484 26.8646 181.344 27.2656 181.344 27.7969V33.2656C181.344 33.8177 181.479 34.2344 181.75 34.5156C182.031 34.7969 182.438 34.9375 182.969 34.9375H190.297C190.849 34.9375 191.26 34.7969 191.531 34.5156C191.802 34.2344 191.938 33.8281 191.938 33.2969V14.9688H196V33.2969Z" fill="white"/>
</svg>
